<?xml version="1.0" encoding="utf-8"?>
<!-- Generator: Adobe Illustrator 27.4.0, SVG Export Plug-In . SVG Version: 6.00 Build 0)  -->
<svg version="1.1" id="Layer_1" xmlns="http://www.w3.org/2000/svg" xmlns:xlink="http://www.w3.org/1999/xlink" x="0px" y="0px"
	 viewBox="0 0 1126 425" style="enable-background:new 0 0 1126 425;" xml:space="preserve">
<style type="text/css">
	.st0{clip-path:url(#SVGID_00000002363455993246484470000012734583957770440116_);}
	.st1{fill:#2F59A5;}
	.st2{fill:#85C5EC;}
	.st3{fill:#7F8080;}
	.st4{clip-path:url(#SVGID_00000128460001936393127970000016397001652543008445_);}
	
		.st5{clip-path:url(#SVGID_00000013893922234501856340000000113105529341984937_);fill-rule:evenodd;clip-rule:evenodd;fill:#88C8EE;}
	
		.st6{clip-path:url(#SVGID_00000013893922234501856340000000113105529341984937_);fill-rule:evenodd;clip-rule:evenodd;fill:#3159A7;}
	
		.st7{clip-path:url(#SVGID_00000013893922234501856340000000113105529341984937_);fill-rule:evenodd;clip-rule:evenodd;fill:#808181;}
	
		.st8{clip-path:url(#SVGID_00000013893922234501856340000000113105529341984937_);fill-rule:evenodd;clip-rule:evenodd;fill:#008BCC;}
</style>
<g>
	<g>
		<defs>
			<path id="SVGID_1_" d="M78.02,250.13h53.44v26.46H78.02v41.51H43.77V197.03h94.95v26.46H78.02V250.13z M222.44,197.03
				l53.62,121.07h-35.63l-9.51-23.52h-51.2l-9.51,23.52h-34.94l53.44-121.07H222.44z M220.89,269.33l-15.57-38.74l-15.57,38.74
				H220.89z M346.12,222.97c11.59,0,20.93,5.02,28.54,14.18l21.79-19.72c-11.76-14.7-29.75-22.83-52.06-22.83
				c-38.4,0-66.59,26.12-66.59,62.96c0,36.84,28.19,62.96,66.59,62.96c22.31,0,40.3-8.13,52.06-22.83l-21.79-19.72
				c-7.61,9.17-16.95,14.18-28.54,14.18c-19.89,0-33.73-13.84-33.73-34.59C312.39,236.81,326.23,222.97,346.12,222.97z
				 M411.67,318.1h34.25V197.03h-34.25V318.1z M504.55,197.03H470.3V318.1h92.02v-27.15h-57.77V197.03z M575.81,318.1h34.25V197.03
				h-34.25V318.1z M820.55,197.03l-28.71,48.08l-28.71-48.08h-31.65h-4.49H623.03v27.15h37.19v93.92h34.25v-93.92h37.01v-19.65
				l41.69,69.63v43.93h34.25v-43.41l46.35-77.66H820.55z"/>
		</defs>
		<clipPath id="SVGID_00000075856319248501885900000010419462044454756540_">
			<use xlink:href="#SVGID_1_"  style="overflow:visible;"/>
		</clipPath>
		<g style="clip-path:url(#SVGID_00000075856319248501885900000010419462044454756540_);">
			
				<rect x="5.1" y="137.68" transform="matrix(0.9986 -0.0524 0.0524 0.9986 -10.7335 23.0694)" class="st1" width="858.44" height="156.86"/>
			<path class="st2" d="M875.34,429.57l-889.01,46.68l30.2-162.03c99.34-81,850.58-41.36,850.58-41.36L875.34,429.57z"/>
			<path class="st3" d="M867.5,323.35c-33.01-56.45-746.9-86.83-837.78-4.3l-16.81-8.28c115.76-79.81,812.86-19.02,849.48-84.61
				L867.5,323.35z"/>
		</g>
	</g>
	<g>
		<g>
			<defs>
				<rect id="SVGID_00000160172606080195053370000000991251274515726208_" x="816.96" y="48.92" width="308.71" height="313.57"/>
			</defs>
			<clipPath id="SVGID_00000123403441270561065260000002035487862721724337_">
				<use xlink:href="#SVGID_00000160172606080195053370000000991251274515726208_"  style="overflow:visible;"/>
			</clipPath>
			<g style="clip-path:url(#SVGID_00000123403441270561065260000002035487862721724337_);">
				<defs>
					<rect id="SVGID_00000013911083546203660310000011393276812063726506_" x="816.96" y="48.92" width="308.71" height="313.57"/>
				</defs>
				<clipPath id="SVGID_00000018947736112560286600000013551072839982808975_">
					<use xlink:href="#SVGID_00000013911083546203660310000011393276812063726506_"  style="overflow:visible;"/>
				</clipPath>
				
					<path style="clip-path:url(#SVGID_00000018947736112560286600000013551072839982808975_);fill-rule:evenodd;clip-rule:evenodd;fill:#88C8EE;" d="
					M919.33,136.75v36.06h99.07c8.44,0,15.48,7.03,15.48,15.46v84.15l36.11,36.47V188.27c0-28.34-23.21-51.52-51.59-51.52H919.33z"
					/>
				
					<path style="clip-path:url(#SVGID_00000018947736112560286600000013551072839982808975_);fill-rule:evenodd;clip-rule:evenodd;fill:#88C8EE;" d="
					M1008.17,297.91h-84.09c-8.44,0-15.48-7.03-15.48-15.46V182.31h-36.11v100.14c0,28.33,23.21,51.52,51.59,51.52h119.4l8.11,8.28
					h52.85l-34.46-34.41l-36.11-36.06l-24.58-24.55h-50.75L1008.17,297.91z"/>
				
					<rect x="872.49" y="136.75" style="clip-path:url(#SVGID_00000018947736112560286600000013551072839982808975_);fill-rule:evenodd;clip-rule:evenodd;fill:#3159A7;" width="36.11" height="36.06"/>
				
					<rect x="896.51" y="81.23" style="clip-path:url(#SVGID_00000018947736112560286600000013551072839982808975_);fill-rule:evenodd;clip-rule:evenodd;fill:#808181;" width="36.11" height="36.06"/>
				
					<rect x="834.03" y="114.22" style="clip-path:url(#SVGID_00000018947736112560286600000013551072839982808975_);fill-rule:evenodd;clip-rule:evenodd;fill:#008BCC;" width="23.87" height="23.84"/>
				
					<rect x="846.16" y="67.29" style="clip-path:url(#SVGID_00000018947736112560286600000013551072839982808975_);fill-rule:evenodd;clip-rule:evenodd;fill:#88C8EE;" width="34.49" height="34.43"/>
			</g>
		</g>
	</g>
</g>
</svg>
